<?xml version="1.0" encoding="iso-8859-1"?>
<!-- Generator: Adobe Illustrator 19.0.0, SVG Export Plug-In . SVG Version: 6.00 Build 0)  -->
<svg version="1.1" id="Capa_1" xmlns="http://www.w3.org/2000/svg" xmlns:xlink="http://www.w3.org/1999/xlink" x="0px" y="0px"
	 viewBox="0 0 512 512" style="enable-background:new 0 0 512 512;" xml:space="preserve">
<circle style="fill:#DFE1DF;" cx="256" cy="256" r="234.667"/>
<path style="fill:#303C42;" d="M362.667,384H149.333c-23.521,0-42.667-19.135-42.667-42.667V192
	c0-23.531,19.146-42.667,42.667-42.667h48.917l15.083-15.083c4.021-4.031,9.396-6.25,15.083-6.25h55.167
	c5.688,0,11.063,2.219,15.083,6.25l15.083,15.083h48.917c23.521,0,42.667,19.135,42.667,42.667v149.333
	C405.333,364.865,386.188,384,362.667,384z"/>
<path style="fill:#495965;" d="M149.333,170.667C137.563,170.667,128,180.24,128,192v149.333c0,11.76,9.563,21.333,21.333,21.333
	h213.333c11.771,0,21.333-9.573,21.333-21.333V192c0-11.76-9.563-21.333-21.333-21.333H313.75c-5.688,0-11.063-2.219-15.083-6.25
	l-15.083-15.083h-55.167l-15.083,15.083c-4.021,4.031-9.396,6.25-15.083,6.25H149.333z"/>
<path style="opacity:0.1;enable-background:new    ;" d="M362.667,170.667v115.49c0,24.582-19.928,44.51-44.51,44.51H128v10.667
	c0,11.76,9.563,21.333,21.333,21.333h213.333c11.771,0,21.333-9.573,21.333-21.333V192C384,180.24,374.438,170.667,362.667,170.667z
	"/>
<circle style="fill:#303C42;" cx="256" cy="266.667" r="74.667"/>
<circle style="fill:#5C6671;" cx="256" cy="266.667" r="53.333"/>
<path style="opacity:0.2;fill:#FFFFFF;enable-background:new    ;" d="M202.667,266.667C202.667,296.073,226.583,320,256,320
	c29.417,0,53.333-23.927,53.333-53.333H202.667z"/>
<path style="fill:#EE3124;" d="M256,0C114.844,0,0,114.844,0,256s114.844,256,256,256s256-114.844,256-256S397.156,0,256,0z
	 M42.667,256c0-51.151,18.125-98.126,48.249-134.918l300.003,300.003c-36.792,30.124-83.767,48.249-134.918,48.249
	C138.365,469.333,42.667,373.635,42.667,256z M421.085,390.918L121.082,90.915C157.874,60.792,204.849,42.667,256,42.667
	c117.635,0,213.333,95.698,213.333,213.333C469.333,307.151,451.208,354.126,421.085,390.918z"/>
<linearGradient id="SVGID_1_" gradientUnits="userSpaceOnUse" x1="-45.5784" y1="639.555" x2="-23.8278" y2="629.4138" gradientTransform="matrix(21.3333 0 0 -21.3333 996.3334 13791.667)">
	<stop  offset="0" style="stop-color:#FFFFFF;stop-opacity:0.2"/>
	<stop  offset="1" style="stop-color:#FFFFFF;stop-opacity:0"/>
</linearGradient>
<path style="fill:url(#SVGID_1_);" d="M256,0C114.844,0,0,114.844,0,256s114.844,256,256,256s256-114.844,256-256S397.156,0,256,0z"
	/>
<g>
</g>
<g>
</g>
<g>
</g>
<g>
</g>
<g>
</g>
<g>
</g>
<g>
</g>
<g>
</g>
<g>
</g>
<g>
</g>
<g>
</g>
<g>
</g>
<g>
</g>
<g>
</g>
<g>
</g>
</svg>
